# xmcd CD database file
#
# Track frame offsets:
#	150
#	18194
#	37002
#	52911
#	68016
#	81497
#	104626
#	134874
#	150012
#	166657
#	176546
#	195660
#	209177
#	235784
#
# Disc length: 3354 seconds
#
# Revision: 0
# Processed by: cddbd v1.5.2PL0 Copyright (c) Steve Scherf et al.
# Submitted via: CDex 1.51
#
DISCID=bb0d180e
DTITLE=Jerry and The Outlaws - Happy Hour Saloon
DYEAR=2006
DGENRE=Country
TTITLE0=Whiskey Bar
TTITLE1=Waiting All Day To Cry
TTITLE2=Don't Shoot The Plane Down
TTITLE3=Leave The Rain
TTITLE4=Every Hit Is A Gamble
TTITLE5=Four Walls And A Memory
TTITLE6=Gone Before They Leave
TTITLE7=Hello
TTITLE8=Drinkin' To Forget
TTITLE9=2 Min Sad Song
TTITLE10=No Word Of Mine
TTITLE11=Crazy Snake
TTITLE12=A New Chapter Please
TTITLE13=Pearl
EXTD=YEAR: 2006
EXTT0=
EXTT1=
EXTT2=
EXTT3=
EXTT4=
EXTT5=
EXTT6=
EXTT7=
EXTT8=
EXTT9=
EXTT10=
EXTT11=
EXTT12=
EXTT13=
PLAYORDER=
